<svg width="498.7412231445312px" height="121.6174835205078px" xmlns="http://www.w3.org/2000/svg" viewBox="0.6293884277343977 14.191258239746098 498.7412231445312 121.6174835205078" style="background: none;" preserveAspectRatio="xMidYMid"><defs><filter id="editing-extrude-glow"><feFlood flood-color="#d8ebf9" result="flood-1"></feFlood><feMorphology operator="erode" radius="1" in="SourceAlpha" result="erode"></feMorphology><feComposite operator="in" in="flood-1" in2="erode" result="comp1"></feComposite><feConvolveMatrix order="3,3" divisor="1" in="comp1" result="convolve" kernelMatrix="0 0 0 1 1 1 0 0 0"></feConvolveMatrix><feOffset dx="-3" dy="0" in="convolve" result="extrude"></feOffset><feComposite operator="in" in="flood-1" in2="extrude" result="comp-extrude"></feComposite><feFlood flood-color="#71c2cc" result="flood-2"></feFlood><feComposite operator="in" in="flood-2" in2="SourceAlpha" result="comp2"></feComposite><feMorphology operator="dilate" radius="1" in="comp2" result="dilate"></feMorphology><feOffset dx="-4.5" dy="0" in="dilate" result="offset"></feOffset><feGaussianBlur in="offset" stdDeviation="5.8" result="blur"></feGaussianBlur><feComponentTransfer in="blur" result="shadow"><feFuncA type="linear" slope="0.8" intercept="-0.2"></feFuncA></feComponentTransfer><feMerge><feMergeNode in="shadow"></feMergeNode><feMergeNode in="comp-extrude"></feMergeNode><feMergeNode in="SourceGraphic"></feMergeNode></feMerge></filter></defs><g filter="url(#editing-extrude-glow)"><g transform="translate(74.54282101988792, 97.39999961853027)"><path d="M30.21-33.92L30.21-33.92L30.21-33.92Q25.02-33.92 21.25-35.65L21.25-35.65L19.20-25.28L31.55-25.28L31.55-25.28Q31.55-21.89 29.86-19.74L29.86-19.74L29.86-19.74Q28.16-17.60 25.09-17.60L25.09-17.60L25.09-17.60Q21.76-17.60 18.69-18.82L18.69-18.82L18.69-18.82Q18.05-19.07 17.98-19.14L17.98-19.14L14.34 0L0.38 0L8.51-42.24L37.06-42.24L37.06-42.24Q37.06-38.34 35.23-36.13L35.23-36.13L35.23-36.13Q33.41-33.92 30.21-33.92ZM48.70 0L34.75 0L42.88-42.24L56.96-42.24L48.70 0ZM87.49-33.92L87.49-33.92L87.49-33.92Q82.30-33.92 78.53-35.65L78.53-35.65L76.48-25.28L88.83-25.28L88.83-25.28Q88.83-21.89 87.14-19.74L87.14-19.74L87.14-19.74Q85.44-17.60 82.37-17.60L82.37-17.60L82.37-17.60Q79.04-17.60 75.97-18.82L75.97-18.82L75.97-18.82Q75.33-19.07 75.26-19.14L75.26-19.14L71.62 0L57.66 0L65.79-42.24L94.34-42.24L94.34-42.24Q94.34-38.34 92.51-36.13L92.51-36.13L92.51-36.13Q90.69-33.92 87.49-33.92ZM119.10 1.28L119.10 1.28L119.10 1.28Q110.91 1.28 110.14-10.37L110.14-10.37L99.14-10.37L99.14-10.37Q97.86-7.42 96.96-4.86L96.96-4.86L95.30 0L86.34 0L106.50-42.24L120.26-42.24L122.94-11.14L122.94-11.14Q123.58-4.42 126.14-2.43L126.14-2.43L126.14-2.43Q124.29 1.28 119.10 1.28ZM104.64-23.17L101.12-15.04L109.95-15.04L109.18-31.49L109.18-33.22L104.64-23.17ZM168-29.57L168-29.57L168-29.57Q168.96-31.49 168.96-33.28L168.96-33.28L168.96-33.28Q168.96-35.07 168.77-36.06L168.77-36.06L168.77-36.06Q168.58-37.06 168.13-37.82L168.13-37.82L168.13-37.82Q167.17-39.49 165.25-39.49L165.25-39.49L165.25-39.49Q162.88-39.49 160.96-37.76L160.96-37.76L160.96-37.76Q158.91-35.97 158.91-33.15L158.91-33.15L158.91-33.15Q158.91-31.36 160.16-29.98L160.16-29.98L160.16-29.98Q161.41-28.61 163.33-27.33L163.33-27.33L163.33-27.33Q165.25-26.05 167.42-24.77L167.42-24.77L167.42-24.77Q169.60-23.49 171.52-21.95L171.52-21.95L171.52-21.95Q175.94-18.43 175.94-13.70L175.94-13.70L175.94-13.70Q175.94-10.50 174.24-7.78L174.24-7.78L174.24-7.78Q172.54-5.06 169.73-3.07L169.73-3.07L169.73-3.07Q163.58 1.28 155.46 1.28L155.46 1.28L155.46 1.28Q148.86 1.28 145.47-0.86L145.47-0.86L145.47-0.86Q142.08-3.01 142.08-6.27L142.08-6.27L142.08-6.27Q142.08-12.10 146.62-13.57L146.62-13.57L146.62-13.57Q147.90-14.02 149.86-14.02L149.86-14.02L149.86-14.02Q151.81-14.02 154.05-13.18L154.05-13.18L154.05-13.18Q153.02-10.56 153.02-8.19L153.02-8.19L153.02-8.19Q153.02-3.07 156.67-3.07L156.67-3.07L156.67-3.07Q159.04-3.07 160.99-4.80L160.99-4.80L160.99-4.80Q162.94-6.53 162.94-8.48L162.94-8.48L162.94-8.48Q162.94-10.43 161.70-11.84L161.70-11.84L161.70-11.84Q160.45-13.25 158.59-14.37L158.59-14.37L158.59-14.37Q156.74-15.49 154.59-16.58L154.59-16.58L154.59-16.58Q152.45-17.66 150.59-19.20L150.59-19.20L150.59-19.20Q146.24-22.72 146.24-28.35L146.24-28.35L146.24-28.35Q146.24-32 148.03-34.85L148.03-34.85L148.03-34.85Q149.82-37.70 152.70-39.62L152.70-39.62L152.70-39.62Q158.46-43.52 165.54-43.52L165.54-43.52L165.54-43.52Q172.61-43.52 176.03-41.41L176.03-41.41L176.03-41.41Q179.46-39.30 179.46-35.71L179.46-35.71L179.46-35.71Q179.46-32.58 177.02-30.59L177.02-30.59L177.02-30.59Q174.91-28.93 172.35-28.93L172.35-28.93L172.35-28.93Q169.79-28.93 168-29.57ZM194.75 1.28L194.75 1.28L194.75 1.28Q180.67 1.28 180.67-11.97L180.67-11.97L180.67-11.97Q180.67-21.38 185.86-27.46L185.86-27.46L185.86-27.46Q191.36-33.92 200.90-33.92L200.90-33.92L200.90-33.92Q207.81-33.92 211.33-30.72L211.33-30.72L211.33-30.72Q214.85-27.52 214.85-20.80L214.85-20.80L214.85-20.80Q214.85-10.56 209.34-4.61L209.34-4.61L209.34-4.61Q203.97 1.28 194.75 1.28ZM196.42-26.56L196.42-26.56L196.42-26.56Q195.65-24.83 195.04-22.24L195.04-22.24L195.04-22.24Q194.43-19.65 193.66-15.55L193.66-15.55L193.66-15.55Q192.90-11.46 192.90-6.40L192.90-6.40L192.90-6.40Q192.90-4.74 193.44-3.65L193.44-3.65L193.44-3.65Q193.98-2.56 195.46-2.56L195.46-2.56L195.46-2.56Q196.93-2.56 197.86-3.26L197.86-3.26L197.86-3.26Q198.78-3.97 199.49-5.63L199.49-5.63L199.49-5.63Q200.77-8.58 201.79-14.05L201.79-14.05L201.79-14.05Q202.82-19.52 202.91-21.89L202.91-21.89L202.91-21.89Q203.01-24.26 203.01-26.02L203.01-26.02L203.01-26.02Q203.01-27.78 202.50-28.93L202.50-28.93L202.50-28.93Q201.98-30.08 200.54-30.08L200.54-30.08L200.54-30.08Q199.10-30.08 198.14-29.18L198.14-29.18L198.14-29.18Q197.18-28.29 196.42-26.56ZM250.05-26.62L250.05-26.62L250.05-26.62Q250.05-23.94 247.81-22.27L247.81-22.27L247.81-22.27Q245.57-20.61 241.92-20.61L241.92-20.61L241.92-20.61Q240.38-20.61 239.49-21.06L239.49-21.06L239.49-21.06Q240.19-22.72 240.42-24.80L240.42-24.80L240.42-24.80Q240.64-26.88 240.64-27.46L240.64-27.46L240.64-27.46Q240.64-30.14 238.78-30.14L238.78-30.14L238.78-30.14Q237.50-30.14 236.06-28.54L236.06-28.54L236.06-28.54Q234.62-26.94 233.41-24.45L233.41-24.45L233.41-24.45Q230.72-18.69 230.72-12.86L230.72-12.86L230.72-12.86Q230.72-9.66 231.94-8.22L231.94-8.22L231.94-8.22Q233.15-6.78 235.84-6.78L235.84-6.78L235.84-6.78Q239.55-6.78 242.50-9.86L242.50-9.86L242.50-9.86Q243.33-10.82 243.78-11.90L243.78-11.90L243.78-11.90Q246.21-10.62 246.21-7.10L246.21-7.10L246.21-7.10Q246.21-3.52 242.24-1.15L242.24-1.15L242.24-1.15Q238.14 1.28 231.62 1.28L231.62 1.28L231.62 1.28Q218.62 1.28 218.62-12.48L218.62-12.48L218.62-12.48Q218.62-22.53 224.32-28.29L224.32-28.29L224.32-28.29Q229.82-33.92 239.94-33.92L239.94-33.92L239.94-33.92Q250.05-33.92 250.05-26.62ZM283.20-26.62L283.20-26.62L283.20-26.62Q283.20-23.94 280.96-22.27L280.96-22.27L280.96-22.27Q278.72-20.61 275.07-20.61L275.07-20.61L275.07-20.61Q273.54-20.61 272.64-21.06L272.64-21.06L272.64-21.06Q273.34-22.72 273.57-24.80L273.57-24.80L273.57-24.80Q273.79-26.88 273.79-27.46L273.79-27.46L273.79-27.46Q273.79-30.14 271.94-30.14L271.94-30.14L271.94-30.14Q270.66-30.14 269.22-28.54L269.22-28.54L269.22-28.54Q267.78-26.94 266.56-24.45L266.56-24.45L266.56-24.45Q263.87-18.69 263.87-12.86L263.87-12.86L263.87-12.86Q263.87-9.66 265.09-8.22L265.09-8.22L265.09-8.22Q266.30-6.78 268.99-6.78L268.99-6.78L268.99-6.78Q272.70-6.78 275.65-9.86L275.65-9.86L275.65-9.86Q276.48-10.82 276.93-11.90L276.93-11.90L276.93-11.90Q279.36-10.62 279.36-7.10L279.36-7.10L279.36-7.10Q279.36-3.52 275.39-1.15L275.39-1.15L275.39-1.15Q271.30 1.28 264.77 1.28L264.77 1.28L264.77 1.28Q251.78 1.28 251.78-12.48L251.78-12.48L251.78-12.48Q251.78-22.53 257.47-28.29L257.47-28.29L257.47-28.29Q262.98-33.92 273.09-33.92L273.09-33.92L273.09-33.92Q283.20-33.92 283.20-26.62ZM310.85-10.82L310.85-10.82L310.85-10.82Q312.45-9.73 312.45-7.33L312.45-7.33L312.45-7.33Q312.45-4.93 311.23-3.39L311.23-3.39L311.23-3.39Q310.02-1.86 308.03-0.83L308.03-0.83L308.03-0.83Q303.94 1.28 299.52 1.28L299.52 1.28L299.52 1.28Q295.10 1.28 292.51 0.32L292.51 0.32L292.51 0.32Q289.92-0.64 288.19-2.43L288.19-2.43L288.19-2.43Q284.80-5.82 284.80-12.03L284.80-12.03L284.80-12.03Q284.80-21.70 290.05-27.58L290.05-27.58L290.05-27.58Q295.68-33.92 305.47-33.92L305.47-33.92L305.47-33.92Q311.55-33.92 314.56-31.36L314.56-31.36L314.56-31.36Q316.80-29.44 316.80-26.30L316.80-26.30L316.80-26.30Q316.80-15.04 297.34-15.04L297.34-15.04L297.34-15.04Q297.09-13.38 297.09-11.97L297.09-11.97L297.09-11.97Q297.09-9.02 298.40-7.90L298.40-7.90L298.40-7.90Q299.71-6.78 302.14-6.78L302.14-6.78L302.14-6.78Q304.58-6.78 307.17-7.90L307.17-7.90L307.17-7.90Q309.76-9.02 310.85-10.82ZM297.79-17.79L297.79-17.79L297.79-17.79Q302.34-17.79 304.96-20.61L304.96-20.61L304.96-20.61Q307.58-23.30 307.58-27.58L307.58-27.58L307.58-27.58Q307.58-29.06 307.04-29.86L307.04-29.86L307.04-29.86Q306.50-30.66 305.41-30.66L305.41-30.66L305.41-30.66Q304.32-30.66 303.39-30.24L303.39-30.24L303.39-30.24Q302.46-29.82 301.50-28.42L301.50-28.42L301.50-28.42Q299.14-25.22 297.79-17.79ZM339.01-17.98L339.01-17.98L339.01-17.98Q341.31-22.08 341.31-26.24L341.31-26.24L341.31-26.24Q341.31-28.99 339.33-28.99L339.33-28.99L339.33-28.99Q337.79-28.99 336.19-26.37L336.19-26.37L336.19-26.37Q334.53-23.74 334.02-20.35L334.02-20.35L330.69 0L317.44 1.28L323.97-32.64L334.53-33.92L333.38-27.46L333.38-27.46Q336.51-33.92 343.55-33.92L343.55-33.92L343.55-33.92Q347.26-33.92 349.28-32L349.28-32L349.28-32Q351.30-30.08 351.30-26.14L351.30-26.14L351.30-26.14Q351.30-22.21 348.70-19.71L348.70-19.71L348.70-19.71Q346.11-17.22 341.70-17.22L341.70-17.22L341.70-17.22Q339.78-17.22 339.01-17.98Z" fill="#5699d2"></path></g></g><style>text {
  font-size: 64px;
  font-family: Arial Black;
  dominant-baseline: central;
  text-anchor: middle;
}</style></svg>